<svg width="46" height="20" viewBox="0 0 46 20" fill="none" xmlns="http://www.w3.org/2000/svg">
<path d="M38.2266 15.7482C38.6924 14.6326 39.5371 15.7345 39.5371 14.0917L36.6536 16.0057C36.6536 17.011 32.533 15.4662 32.3123 16.0057C31.9813 16.8393 31.5453 15.5398 30.7239 16.0057C29.9148 16.4715 28.5447 14.9008 26.9632 14.9008H10.9768C8.14481 14.9008 6.40395 14.0181 5.72968 12.2528C5.49674 11.7379 5.37415 10.99 5.37415 9.997C5.37415 9.00398 5.49674 8.25615 5.72968 7.74124C6.40395 5.98813 4.79113 4.562 7.59857 4.562L11.641 4.21715L14.4267 0.863634H10.9522C5.54578 0.814596 2.16214 2.49415 0.801334 5.90231C0.335471 7.00567 0.102539 8.36648 0.102539 9.997C0.102539 11.6275 0.335471 12.9883 0.801334 14.0917C2.16214 17.5121 5.54578 19.1917 10.9768 19.1426H18.9823H26.9632C32.5201 18.9636 36.8658 19.1809 38.2266 15.7482Z" fill="#6FCF97"/>
<path d="M40.6091 14.0917C41.0749 12.9761 41.3079 11.5908 41.3079 9.948L39.2437 13.4742C39.2437 14.4795 35.9544 15.4663 35.7337 16.0057C35.4027 16.8394 34.9667 15.5398 34.1453 16.0057C33.3362 16.4716 31.9661 14.9009 30.3846 14.9009H14.3982C11.5662 14.9009 9.82534 14.0182 9.15106 12.2528C8.91813 11.7379 8.79553 10.9901 8.79553 9.99704C8.79553 9.00401 8.91813 8.25618 9.15106 7.74128C9.82534 5.98816 8.21252 4.56203 11.02 4.56203L15.0624 4.21719L17.848 0.863667H14.3736C8.96717 0.814629 5.58353 2.49419 4.22272 5.90234C3.75686 7.0057 3.52393 8.36652 3.52393 9.99704C3.52393 11.6276 3.75686 12.9884 4.22272 14.0917C5.58353 17.5121 8.96717 19.1917 14.3982 19.1427H22.4036H30.3846C35.8401 19.204 39.2483 17.5244 40.6091 14.0917Z" fill="#313133"/>
<path d="M44.6344 5.85331C45.1002 6.94441 45.3331 8.30522 45.3331 9.948C45.3331 11.5908 45.1002 12.9761 44.6344 14.0917C43.2735 17.5244 39.8654 19.204 34.4099 19.1427H26.4289H18.4234C12.9924 19.1917 9.6088 17.5121 8.24799 14.0917C7.78213 12.9884 7.54919 11.6276 7.54919 9.99704C7.54919 8.36652 7.78213 7.0057 8.24799 5.90234C9.6088 2.49419 12.9924 0.814627 18.3989 0.863665H26.4044H34.4099C39.8899 0.790107 43.2981 2.45741 44.6344 5.85331ZM39.7183 12.2528C39.9389 11.7134 40.0493 10.941 40.0493 9.93574C40.0493 8.94271 39.9389 8.18262 39.7183 7.66772C39.4118 6.84633 38.8478 6.20883 38.0142 5.76749C37.1928 5.32615 35.9914 5.10547 34.4099 5.10547H18.3989C15.5915 5.10547 13.8506 5.98816 13.1763 7.74128C12.9434 8.25618 12.8208 9.00401 12.8208 9.99704C12.8208 10.9901 12.9434 11.7379 13.1763 12.2528C13.8506 14.0182 15.5915 14.9009 18.4234 14.9009H34.4099C35.9914 14.9009 37.1805 14.6679 37.9897 14.2021C38.8111 13.7362 39.3873 13.0864 39.7183 12.2528Z" fill="#57575B"/>
</svg>
